<?xml version="1.0" standalone="no"?>
<!DOCTYPE svg PUBLIC "-//W3C//DTD SVG 20010904//EN"
 "http://www.w3.org/TR/2001/REC-SVG-20010904/DTD/svg10.dtd">
<svg version="1.0" xmlns="http://www.w3.org/2000/svg"
 width="260.000000pt" height="260.000000pt" viewBox="0 0 260.000000 260.000000"
 preserveAspectRatio="xMidYMid meet">
<metadata>
Created by potrace 1.11, written by Peter Selinger 2001-2013
</metadata>
<g transform="translate(0.000000,260.000000) scale(0.100000,-0.100000)"
fill="#000000" stroke="none">
<path d="M624 1807 l0 -598 80 6 c45 3 116 8 160 11 43 4 162 7 265 8 154 2
198 -1 256 -17 236 -62 338 -231 284 -466 -43 -188 -220 -294 -478 -286 -111
3 -193 20 -301 63 -72 29 -194 98 -250 142 l-36 29 -72 -147 c-40 -81 -72
-152 -72 -159 0 -25 217 -137 350 -181 180 -59 280 -76 450 -77 131 0 185 6
287 35 339 94 544 363 544 711 0 87 -21 201 -48 268 -63 153 -210 291 -386
361 -130 52 -209 63 -457 64 l-225 2 0 242 0 242 265 0 c146 0 377 2 514 3
l249 2 -2 165 c-1 90 -4 167 -7 170 -3 3 -313 5 -688 5 l-683 0 1 -598z"/>
</g>
</svg>
